PathFileType	4	(X/Y/Z)	G:\マイドライブ\biomec\experimentalData\240725\CJ1.trc
DataRate	CameraRate	NumFrames	NumMarkers	Units	OrigDataRate	OrigDataStartFrame	OrigNumFrames
200.00	200.00	      5	52	mm	200.00	1187	      1582
Frame#	Time	handR			wrRI			wrRO			elbRI			elbRO			shRF			shRU			shRB			handL			wrLI			wrLO			elbLI			elbLO			shLF			shLU			shLB			toeR			baRI			baRO			heelR			anRI			anRO			knRI			knRO			troR			toeL			baLI			baLO			heelL			anLI			anLO			knLI			knLO			troL			head			earR			earL			clav			c7			ribR			ribL			xiph			ASISR			ASISL			PSISR			PSISL			t8			t11			L1			L3			LS			COX			
		X1	Y1	Z1	X2	Y2	Z2	X3	Y3	Z3	X4	Y4	Z4	X5	Y5	Z5	X6	Y6	Z6	X7	Y7	Z7	X8	Y8	Z8	X9	Y9	Z9	X10	Y10	Z10	X11	Y11	Z11	X12	Y12	Z12	X13	Y13	Z13	X14	Y14	Z14	X15	Y15	Z15	X16	Y16	Z16	X17	Y17	Z17	X18	Y18	Z18	X19	Y19	Z19	X20	Y20	Z20	X21	Y21	Z21	X22	Y22	Z22	X23	Y23	Z23	X24	Y24	Z24	X25	Y25	Z25	X26	Y26	Z26	X27	Y27	Z27	X28	Y28	Z28	X29	Y29	Z29	X30	Y30	Z30	X31	Y31	Z31	X32	Y32	Z32	X33	Y33	Z33	X34	Y34	Z34	X35	Y35	Z35	X36	Y36	Z36	X37	Y37	Z37	X38	Y38	Z38	X39	Y39	Z39	X40	Y40	Z40	X41	Y41	Z41	X42	Y42	Z42	X43	Y43	Z43	X44	Y44	Z44	X45	Y45	Z45	X46	Y46	Z46	X47	Y47	Z47	X48	Y48	Z48	X49	Y49	Z49	X50	Y50	Z50	X51	Y51	Z51	X52	Y52	Z52	

1187	5.930	546.53638	925.24475	1040.90771	482.69669	885.17328	1021.19598	467.21301	945.29974	1057.35608	321.08878	885.69147	1211.16003	350.94077	810.28741	1218.88831	582.23608	915.27167	1401.61230	475.38129	942.91791	1415.75085	526.97742	913.37946	1440.90955	692.65607	1168.61340	1046.05896	688.97241	1260.38782	1024.50183	648.68903	1229.92065	1081.18286	618.57886	1426.71301	1176.20923	701.23486	1445.33533	1175.57031	729.41766	1200.42358	1372.23438	703.46448	1253.75867	1406.54712	635.29993	1268.70959	1371.55664	639.03418	765.24683	37.09832	568.08832	831.28394	31.12916	519.06030	715.44958	46.12756	364.31577	845.56128	60.78064	469.49051	872.55847	115.48377	427.77786	786.29565	126.27750	578.76984	928.64948	460.25845	552.47412	829.39606	483.63681	496.52856	919.74579	869.02124	685.05969	1374.20422	36.85869	622.40723	1419.50903	65.95135	719.86780	1478.33020	71.02793	608.37866	1610.43115	166.34926	606.75940	1472.36743	194.08601	680.91046	1532.51489	195.15970	629.83771	1251.55518	479.26581	719.80164	1298.63184	506.65482	671.28363	1219.64563	877.76929	743.12097	1041.79895	1678.82019	678.87433	962.98260	1519.66736	773.48566	1088.47437	1499.15820	680.89899	1046.67065	1370.15881	597.23468	1105.98401	1470.35059	578.87604	954.61963	1084.91577	685.36517	1139.93640	1081.16455	686.58124	1026.74731	1213.41687	581.53589	945.03888	951.90869	686.14856	1136.13037	971.58759	457.10114	1071.57373	993.01538	521.77936	1174.16638	1001.09894	500.27740	1133.53259	1262.85974	495.79459	1124.86047	1134.92969	498.14844	1122.89990	1074.61963	491.51865	1120.47437	1027.68823	478.75742	1130.21130	989.76440	456.17847	1147.63940	885.85901	
1188	5.935	545.69958	929.84271	1040.03125	481.59225	890.06439	1020.20630	466.25067	950.51624	1056.12170	319.73691	891.93561	1210.18994	348.65237	817.09167	1217.84460	581.47589	919.52069	1400.37805	474.54822	948.08038	1414.73792	525.45941	918.81445	1440.06152	693.59363	1171.66455	1044.77600	693.54956	1259.98572	1023.26770	650.02869	1233.68970	1079.93872	621.93591	1430.68091	1174.95410	704.84613	1448.40991	1174.12305	730.90173	1203.41895	1371.17651	705.37415	1257.12085	1405.24353	636.81891	1272.77429	1370.43921	639.09766	765.36151	36.95808	568.23212	831.31769	31.07381	519.19556	715.64331	46.32316	364.48425	845.77844	61.26705	469.98648	872.98529	115.45748	428.29285	786.85443	126.51932	579.72192	931.01904	460.00400	553.14911	831.88892	483.89075	495.78769	924.40210	868.09796	684.56732	1375.81824	37.59623	622.98499	1422.66760	64.83820	721.43799	1480.20471	68.33953	613.22424	1614.61548	163.03250	608.96973	1476.83325	192.10373	684.13928	1535.48206	192.55550	629.02722	1257.34351	478.62506	719.53070	1302.73669	505.65686	672.50305	1223.15393	876.68115	743.32330	1045.18030	1677.75818	678.42664	966.42798	1518.83069	774.05688	1091.02393	1497.86987	680.95148	1049.94983	1368.93921	597.95490	1110.25977	1469.42017	578.14886	958.87665	1083.78552	686.06042	1143.26440	1079.93445	686.66724	1030.03589	1212.33691	580.71552	949.56995	950.74414	686.88049	1139.73279	970.46021	457.08145	1076.85352	991.67914	522.26251	1178.98755	1000.18549	500.88724	1138.58191	1261.79358	496.08286	1129.94141	1134.10742	498.67719	1127.66980	1073.60022	492.11014	1125.57422	1026.56897	479.46442	1135.24561	988.66071	456.55374	1152.88379	884.94702	
1189	5.940	544.92035	934.25861	1038.76892	480.13474	895.25665	1019.04132	465.48932	955.72565	1054.94287	317.88303	899.43457	1209.44128	346.47098	823.66632	1216.79053	580.55310	923.91534	1399.35632	473.90662	953.38647	1413.62488	524.63123	923.62231	1438.98254	694.82678	1174.50317	1043.57703	695.21777	1263.21448	1021.77557	651.74414	1237.43469	1078.73315	625.58765	1434.52588	1173.23987	708.84143	1451.61633	1172.97974	732.42767	1206.44666	1369.64417	706.92889	1260.55957	1403.98157	638.77899	1276.78357	1369.21948	639.17523	765.39020	36.84984	568.37524	831.34186	31.00829	519.32550	715.82074	46.53132	364.65094	845.99481	61.72537	470.46490	873.43140	115.39738	428.77936	787.46436	126.92049	580.29285	933.09094	459.51318	554.05414	834.30371	483.90329	495.05771	929.13251	867.18292	684.09564	1376.90527	38.29932	623.60126	1425.59277	63.64342	723.74878	1480.54980	66.05691	617.42090	1618.51563	159.21654	610.85474	1481.18872	190.12448	687.19934	1538.59119	190.02213	628.39386	1262.67419	478.13760	719.44434	1306.72485	504.54327	673.73376	1226.61658	875.26208	743.50946	1048.49243	1676.44458	677.88458	970.13818	1517.74841	774.71509	1093.85278	1496.79822	681.19537	1053.70105	1367.74060	598.67963	1114.30615	1468.06921	577.52063	963.39270	1082.71704	686.96667	1146.65051	1078.89075	686.55060	1033.33044	1211.04004	579.81305	953.96356	949.59637	687.44977	1143.16272	969.08368	457.12576	1082.11719	990.57385	523.40125	1184.00500	999.04871	501.82129	1143.51318	1260.75598	496.92084	1135.02747	1133.28723	499.41409	1132.60388	1072.43738	492.57230	1130.70483	1025.65015	479.87253	1140.34424	987.41528	457.38660	1158.20630	883.64001	
1190	5.945	543.89380	939.02203	1037.82434	478.95749	900.70850	1018.00903	464.89957	961.06024	1053.68677	316.84500	906.31952	1208.13989	344.22998	830.54932	1215.67249	579.40710	928.51398	1398.03235	473.00101	958.78168	1412.49939	523.60168	928.44995	1437.75574	695.69794	1177.94617	1042.47437	697.16516	1266.38049	1020.63440	653.36078	1241.00122	1077.34644	629.03912	1438.42285	1172.03015	712.27179	1454.84814	1171.33813	733.66071	1209.72302	1368.69885	709.02423	1263.96704	1402.76685	640.53265	1280.74658	1368.06934	639.27740	765.36554	36.74979	568.50128	831.35345	30.89916	519.46381	715.95709	46.72113	364.88898	846.26764	62.25011	470.92984	873.85095	115.28434	429.46661	788.27466	127.08433	581.59619	934.99725	458.62848	554.50183	836.91870	483.92651	494.14597	935.10468	866.47662	683.47455	1377.99573	39.00744	623.90436	1427.93213	62.58680	725.22107	1481.41992	63.86417	620.74500	1622.25989	155.21565	612.26660	1485.32080	188.33797	689.71332	1541.57068	187.60638	627.77777	1268.22449	477.42639	719.55408	1311.04138	503.52875	675.85333	1228.78845	874.34198	743.68866	1051.86804	1675.37976	677.26709	973.80792	1516.89050	775.32471	1096.29578	1495.12903	681.22559	1057.14038	1366.45349	599.33868	1118.67126	1467.10095	576.68213	967.77264	1081.64258	687.76837	1149.99487	1077.57410	686.32397	1036.63110	1209.79700	579.05725	958.39465	948.63159	688.50079	1146.76733	967.77484	457.13675	1087.55273	989.51270	524.29926	1188.90198	998.05774	502.63580	1148.48840	1259.58264	497.37332	1140.31665	1132.41016	499.86810	1137.87695	1071.25342	493.07141	1136.06799	1024.42383	480.38861	1145.71167	986.40649	458.23605	1163.54956	882.42523	
1191	5.950	542.82721	943.90723	1036.68030	477.87234	906.04144	1016.80231	464.19022	966.53003	1052.67297	315.71924	913.41644	1206.80920	342.04794	837.44019	1214.64819	578.62671	932.87183	1397.03845	472.44684	964.14807	1411.25562	522.68219	933.31921	1436.49829	696.29639	1181.61670	1041.21960	699.93347	1268.84888	1018.78668	654.76306	1245.02698	1075.96130	632.64258	1442.37598	1170.60999	716.01550	1458.09802	1170.19128	735.18311	1212.66187	1367.27283	710.85217	1267.39270	1401.49939	642.26221	1284.63489	1366.79614	639.34204	765.33716	36.66621	568.63293	831.35284	30.79597	519.58459	716.05841	46.92921	365.14267	846.51520	62.74014	471.22449	874.21259	115.18869	429.84705	788.70367	127.66266	582.02716	937.74109	458.27930	554.71924	839.71472	484.18448	493.45435	940.25256	865.73224	682.64789	1378.93286	39.73388	624.05774	1429.97900	61.64122	725.50378	1482.10876	61.83880	623.72766	1625.72559	151.38350	613.44818	1489.18347	186.44440	691.54480	1544.71863	185.06079	627.35590	1273.53027	476.62631	719.46857	1315.14233	502.23532	676.79224	1232.66162	873.03247	743.91931	1055.20459	1673.92346	676.82495	977.71698	1515.79248	775.98352	1098.96436	1494.03613	681.10266	1060.79163	1365.09180	600.11926	1122.75146	1465.87793	576.07709	972.46967	1080.61475	688.54224	1153.65564	1076.45605	685.98523	1040.28943	1208.66711	578.08472	962.77295	947.66882	689.07141	1150.20251	966.99939	457.42715	1093.04321	988.50006	525.29688	1193.94409	996.96851	503.33911	1153.67249	1258.60461	498.58270	1145.09595	1130.71021	499.63809	1143.49829	1070.28333	493.99976	1141.04614	1023.37073	481.07635	1151.02319	985.25366	459.22815	1169.04236	880.97632	
